<?xml version="1.0" standalone="yes"?>
<svg xmlns="http://www.w3.org/2000/svg" width="512" height="512">
<path style="fill:#ffffff; stroke:none;" d="M0 0L0 234C3.618 225.397 3.0753 213.311 5.00309 204C8.76346 185.838 14.5665 167.863 22.3086 151C51.853 86.648 107.704 35.4319 175 13C193.719 6.76047 214.121 1.05475 234 1C227.806 -1.59906 218.686 0 212 0L165 0L0 0z"/>
<path style="fill:#000000; stroke:none;" d="M196 512L196 427C174.491 428.697 155.422 427.023 139.17 410.829C132.309 403.994 127.969 395.289 121.7 388.001C118.674 384.483 115.186 381.1 111 379C108.162 377.576 103.895 377.549 101.603 375.262C99.5175 373.179 100.09 369.671 99.8302 367C99.216 360.684 98.2722 354.339 98 348C115.741 348 130.988 355.287 142.561 369C148.942 376.561 153.324 386.161 161.015 392.532C168.413 398.66 177.687 399.924 187 398.711C189.93 398.329 194.09 397.927 196.411 395.91C198.316 394.255 198.536 391.29 199.155 388.999C200.284 384.826 201.75 380.776 203.876 377C207.329 370.866 212.469 365.579 215 359C196.314 354.397 178.083 350.911 161 341.41C115.919 316.336 95.3919 264.412 108.921 215C111.608 205.185 115.715 195.748 120.861 187C123.673 182.219 128.784 177.404 130.207 172C131.213 168.18 129.28 163.693 128.374 160C127.039 154.554 126.351 148.606 126.104 143C125.537 130.108 131.168 118.406 133 106C149.187 106.695 162.84 112.305 177 119.781C183.842 123.393 192.123 131.044 200 131.696C206.579 132.24 214.512 128.827 221 127.611C233.583 125.253 247.191 123.478 260 124.039C271.695 124.552 283.515 126.152 295 128.449C300.764 129.602 308.149 132.883 314 131.347C322.068 129.229 329.652 122.658 337 118.781C350.654 111.576 363.602 107.215 379 106C380.892 118.812 386.096 130.696 385.741 144C385.6 149.278 384.882 154.878 383.626 160C382.715 163.717 380.817 168.153 381.789 172C383.233 177.716 388.152 183.042 391.189 188C396.42 196.539 401.127 206.333 403.845 216C417.553 264.764 395.176 316.839 351 341.41C333.917 350.911 315.686 354.397 297 359C301.277 370.118 310.436 377.996 313.522 390C317.292 404.668 316 420.972 316 436L316 512C326.241 511.164 336.531 506.987 346 503.2C367.031 494.789 386.875 483.988 405 470.373C486.766 408.954 529.35 300.368 506.349 200C485.103 107.294 413.199 32.041 321 7.73456C294.267 0.686859 267.473 -0.322998 240 0.00384521C211.804 0.339294 181.738 8.62094 156 19.7191C126.429 32.4699 99.0644 50.4792 76 73.0146C22.0983 125.68 -5.03851 201.187 0.0895062 276C3.84148 330.738 26.6413 384.995 61.5864 427C86.1295 456.502 115.771 479.176 150 496.247C163.795 503.127 180.474 510.732 196 512z"/>
<path style="fill:#ffffff; stroke:none;" d="M278 0C286.603 3.61804 298.689 3.07532 308 5.00308C326.162 8.76343 344.137 14.5666 361 22.3087C425.352 51.8529 476.568 107.704 499 175C505.232 193.695 510.945 214.151 511 234C513.599 227.806 512 218.686 512 212L512 165L512 0L278 0M133 106C130.169 118.238 125.634 130.18 126.043 143C126.209 148.184 126.75 153.943 127.888 159C128.724 162.712 130.742 167.155 129.997 171C128.632 178.043 120.927 185.639 117.436 192C111.845 202.189 108.067 214.535 106.296 226C99.618 269.239 115.381 313.069 153 337.302C171.832 349.433 193.271 354.906 215 359C210.913 366.174 205.206 372.372 201.876 380C199.974 384.356 199.758 391.92 196.411 395.297C194.325 397.403 190.782 397.882 188 398.384C179.189 399.973 170.242 398.859 163.001 393.316C153.92 386.365 149.159 375.465 141.711 367.004C130.13 353.848 115.102 348 98 348C98.1377 354.671 99.1838 361.362 99.8302 368C100.048 370.238 99.5321 373.376 101.028 375.262C102.897 377.617 107.404 377.698 110 379C114.584 381.3 118.397 385.147 121.7 389C127.935 396.273 132.212 405.011 139.17 411.711C155.109 427.059 175.024 429.651 196 427L196 512L316 512L316 434C316 418.726 317.452 401.775 312.961 387C309.698 376.268 302.429 368.531 297 359C318.729 354.906 340.168 349.433 359 337.302C392.549 315.691 412.615 273.909 407.714 234C405.949 219.631 401.414 205.803 394.68 193C391.063 186.124 383.409 178.702 381.999 171C381.291 167.129 383.271 162.735 384.112 159C385.175 154.277 385.752 148.842 385.871 144C386.196 130.833 381.912 118.587 379 106C362.953 106.689 349.053 111.707 335 119.309C328.185 122.995 320.626 129.639 313 131.272C307.757 132.394 301.147 129.479 296 128.449C284.515 126.152 272.695 124.552 261 124.039C247.809 123.462 233.975 125.084 221 127.424C214.656 128.569 207.419 131.571 201 131.486C193.33 131.385 184.597 123.264 178 119.781C163.591 112.173 149.526 106.341 133 106M0 279L0 512L192 512C186.236 508.868 179.164 507.899 173 505.575C159.637 500.536 146.408 494.674 134 487.573C85.474 459.799 46.534 415.723 23.3086 365C15.1638 347.212 9.27245 328.102 5.21065 309C3.20887 299.586 3.77076 287.741 0 279M511 279C510.646 296.135 506.208 313.646 501.424 330C483.435 391.5 442.594 447.418 388 481.424C367.948 493.914 343.722 507.51 320 511C325.216 513.189 332.381 512 338 512L377 512L512 512L512 348L512 301C512 294.314 513.599 285.194 511 279z"/>
</svg>
