<?xml version="1.0" standalone="yes"?>
<svg xmlns="http://www.w3.org/2000/svg" width="512" height="512">
<path style="fill:#ffffff; stroke:none;" d="M0 0L0 234C3.48414 225.7 2.74239 213.997 4.66127 205C9.02704 184.531 15.5755 165.019 24.3086 146C52.7202 84.1239 109.646 34.4677 174 13C192.99 6.66513 213.862 1.01328 234 1C227.806 -1.59906 218.686 0 212 0L165 0L0 0z"/>
<path style="fill:#007ab9; stroke:none;" d="M234 0.424377C187.323 6.55594 144.774 19.7182 106 47.4275C79.7619 66.1783 57.7068 90.1466 40.0031 117C23.9351 141.372 12.1163 169.444 6 198C-4.41742 246.638 -2.14478 298.093 15.0532 345C55.6121 455.623 170.453 524.841 287 510.715C324.759 506.138 362.071 493.499 394 472.656C431.043 448.475 461.611 415.972 482.691 377C541.546 268.19 510.028 126.647 412 51.8843C386.555 32.4785 357.737 18.1154 327 9.29089C304.037 2.69827 280.812 0 257 0C249.4 0 241.545 -0.566772 234 0.424377z"/>
<path style="fill:#ffffff; stroke:none;" d="M278 0C286.3 3.48413 298.003 2.74237 307 4.66125C327.469 9.02704 346.981 15.5756 366 24.3087C427.876 52.7202 477.532 109.646 499 174C505.335 192.99 510.987 213.862 511 234C513.599 227.806 512 218.686 512 212L512 165L512 0L278 0z"/>
<path style="fill:#3996c6; stroke:none;" d="M152 109C153.248 109.685 153.548 109.749 155 110C153.752 109.315 153.452 109.251 152 109z"/>
<path style="fill:#90c2db; stroke:none;" d="M155 109C156.769 109.779 158.036 109.912 160 110C158.231 109.221 156.964 109.088 155 109z"/>
<path style="fill:#53a3cd; stroke:none;" d="M160.667 109.333C160.222 109.778 161.278 109.722 161.333 109.667C161.778 109.222 160.722 109.278 160.667 109.333z"/>
<path style="fill:#2b8fc3; stroke:none;" d="M162.667 109.333C162.222 109.778 163.278 109.722 163.333 109.667C163.778 109.222 162.722 109.278 162.667 109.333z"/>
<path style="fill:#65acd1; stroke:none;" d="M148 110L149 111L148 110z"/>
<path style="fill:#f1f2f2; stroke:none;" d="M149 110.518C126.722 115.271 115.676 142.674 130.39 160.985C139.182 171.926 154.923 174.293 168 171.482C190.89 166.562 199.418 137.64 184.319 120.174C176.068 110.628 160.931 107.972 149 110.518z"/>
<path style="fill:#76b5d5; stroke:none;" d="M167 110L168 111L167 110z"/>
<path style="fill:#53a3cd; stroke:none;" d="M144 111L145 112L144 111z"/>
<path style="fill:#94c4dc; stroke:none;" d="M145 111L146 112L145 111z"/>
<path style="fill:#a3cbdf; stroke:none;" d="M170 111L171 112L170 111z"/>
<path style="fill:#60aad0; stroke:none;" d="M171 111L172 112L171 111z"/>
<path style="fill:#79b6d6; stroke:none;" d="M142 112L143 113L142 112z"/>
<path style="fill:#8cc0da; stroke:none;" d="M173 112L174 113L173 112z"/>
<path style="fill:#80bad7; stroke:none;" d="M140 113L141 114L140 113z"/>
<path style="fill:#8ec1db; stroke:none;" d="M175 113L176 114L175 113z"/>
<path style="fill:#86bdd9; stroke:none;" d="M138 114L139 115L138 114z"/>
<path style="fill:#8fc1db; stroke:none;" d="M177 114L178 115L177 114z"/>
<path style="fill:#62abd0; stroke:none;" d="M135 116L136 117L135 116z"/>
<path style="fill:#65acd1; stroke:none;" d="M180 116L181 117L180 116z"/>
<path style="fill:#9bc7de; stroke:none;" d="M134 117L135 118L134 117M181 117L182 118L181 117z"/>
<path style="fill:#aacfe1; stroke:none;" d="M131 120L132 121L131 120z"/>
<path style="fill:#99c6dd; stroke:none;" d="M184 120L185 121L184 120z"/>
<path style="fill:#8cc0da; stroke:none;" d="M130 121L131 122L130 121z"/>
<path style="fill:#70b2d4; stroke:none;" d="M185 121L186 122L185 121z"/>
<path style="fill:#6aafd2; stroke:none;" d="M129 122L130 123L129 122z"/>
<path style="fill:#4b9fcb; stroke:none;" d="M186 122L187 123L186 122z"/>
<path style="fill:#8cc0da; stroke:none;" d="M187 124L188 125L187 124z"/>
<path style="fill:#499eca; stroke:none;" d="M127 125L128 126L127 125z"/>
<path style="fill:#9ec9de; stroke:none;" d="M188 126L189 127L188 126z"/>
<path style="fill:#60aad0; stroke:none;" d="M126 127L127 128L126 127z"/>
<path style="fill:#acd0e2; stroke:none;" d="M189 128L190 129L189 128z"/>
<path style="fill:#429bc9; stroke:none;" d="M125 129L126 130L125 129z"/>
<path style="fill:#8dc0da; stroke:none;" d="M125 130L126 131L125 130z"/>
<path style="fill:#58a6ce; stroke:none;" d="M190 130L191 131L190 130z"/>
<path style="fill:#a2cadf; stroke:none;" d="M190 131L191 132L190 131z"/>
<path style="fill:#78b6d5; stroke:none;" d="M124 133L125 134L124 133z"/>
<path style="fill:#439bc9; stroke:none;" d="M191 133L192 134L191 133z"/>
<path style="fill:#aed1e2; stroke:none;" d="M191 134L191 137C191.696 135.446 191.696 135.554 191 134z"/>
<path style="fill:#3393c5; stroke:none;" d="M123.333 137.667C123.278 137.722 123.222 138.778 123.667 138.333C123.722 138.278 123.778 137.222 123.333 137.667z"/>
<path style="fill:#61aad0; stroke:none;" d="M123 139L123 143C123.71 141.241 123.71 140.759 123 139z"/>
<path style="fill:#409ac8; stroke:none;" d="M192 139L192 143C192.71 141.24 192.71 140.76 192 139z"/>
<path style="fill:#278dc2; stroke:none;" d="M123.333 143.667C123.278 143.722 123.222 144.778 123.667 144.333C123.722 144.278 123.778 143.222 123.333 143.667z"/>
<path style="fill:#b5d4e4; stroke:none;" d="M191.333 146.667C191.278 146.722 191.222 147.778 191.667 147.333C191.722 147.278 191.778 146.222 191.333 146.667z"/>
<path style="fill:#94c4dc; stroke:none;" d="M124 148L125 149L124 148z"/>
<path style="fill:#74b4d4; stroke:none;" d="M191 148L192 149L191 148z"/>
<path style="fill:#4ca0cb; stroke:none;" d="M124 149L125 150L124 149z"/>
<path style="fill:#add0e2; stroke:none;" d="M125 151L126 152L125 151z"/>
<path style="fill:#8abfda; stroke:none;" d="M190 151L191 152L190 151z"/>
<path style="fill:#65acd1; stroke:none;" d="M125 152L126 153L125 152z"/>
<path style="fill:#92c3dc; stroke:none;" d="M126 154L127 155L126 154z"/>
<path style="fill:#6db0d3; stroke:none;" d="M189 154L190 155L189 154z"/>
<path style="fill:#81bad7; stroke:none;" d="M127 156L128 157L127 156z"/>
<path style="fill:#5ba7ce; stroke:none;" d="M188 156L189 157L188 156z"/>
<path style="fill:#6eb1d3; stroke:none;" d="M128 158L129 159L128 158z"/>
<path style="fill:#489eca; stroke:none;" d="M187 158L188 159L187 158z"/>
<path style="fill:#93c3dc; stroke:none;" d="M186 159L187 160L186 159z"/>
<path style="fill:#439bc9; stroke:none;" d="M131 162L132 163L131 162z"/>
<path style="fill:#65acd1; stroke:none;" d="M132 163L133 164L132 163z"/>
<path style="fill:#4ca0cb; stroke:none;" d="M133 164L134 165L133 164z"/>
<path style="fill:#a5cce0; stroke:none;" d="M180 165L181 166L180 165z"/>
<path style="fill:#a3cbdf; stroke:none;" d="M136 166L137 167L136 166z"/>
<path style="fill:#6fb1d3; stroke:none;" d="M179 166L180 167L179 166z"/>
<path style="fill:#6bafd2; stroke:none;" d="M137 167L138 168L137 167z"/>
<path style="fill:#7cb8d6; stroke:none;" d="M139 168L140 169L139 168z"/>
<path style="fill:#51a2cc; stroke:none;" d="M176 168L177 169L176 168z"/>
<path style="fill:#81bad7; stroke:none;" d="M141 169L142 170L141 169z"/>
<path style="fill:#50a2cc; stroke:none;" d="M174 169L175 170L174 169z"/>
<path style="fill:#7ab7d6; stroke:none;" d="M143 170L144 171L143 170z"/>
<path style="fill:#a4cbe0; stroke:none;" d="M171 170L172 171L171 170z"/>
<path style="fill:#4ea1cc; stroke:none;" d="M172 170L173 171L172 170z"/>
<path style="fill:#58a6ce; stroke:none;" d="M146 171L147 172L146 171z"/>
<path style="fill:#9cc8de; stroke:none;" d="M147 171L148 172L147 171z"/>
<path style="fill:#77b5d5; stroke:none;" d="M168 171L169 172L168 171z"/>
<path style="fill:#5da8cf; stroke:none;" d="M149 172C150.248 172.685 150.548 172.749 152 173C150.752 172.315 150.452 172.251 149 172z"/>
<path style="fill:#9bc7de; stroke:none;" d="M152.667 172.333C152.222 172.778 153.278 172.722 153.333 172.667C153.778 172.222 152.722 172.278 152.667 172.333z"/>
<path style="fill:#c4dbe7; stroke:none;" d="M154.667 172.333C154.222 172.778 155.278 172.722 155.333 172.667C155.778 172.222 154.722 172.278 154.667 172.333z"/>
<path style="fill:#b4d3e3; stroke:none;" d="M159 172C160.248 172.685 160.548 172.749 162 173C160.752 172.315 160.452 172.251 159 172z"/>
<path style="fill:#78b6d5; stroke:none;" d="M162 172C163.506 172.683 164.315 172.826 166 173C164.494 172.317 163.685 172.174 162 172z"/>
<path style="fill:#2b8fc3; stroke:none;" d="M336 193C338.332 193.985 340.457 193.981 343 194C340.668 193.015 338.543 193.019 336 193z"/>
<path style="fill:#91c2db; stroke:none;" d="M326 194C327.769 194.779 329.036 194.912 331 195C329.231 194.221 327.964 194.088 326 194z"/>
<path style="fill:#f1f2f2; stroke:none;" d="M284 224C281.718 216.279 283 207.025 283 199L223 199L223 382L283 382L283 306C283 293.596 280.848 278.91 284.749 267C290.807 248.509 312.585 235.009 331 245.532C345.363 253.74 348 270.959 348 286L348 382L409 382L409 292C409 270.094 409.098 245.496 397.546 226C390.951 214.869 381.794 205.828 370 200.323C341.507 187.026 299.03 193.828 284 224z"/>
<path style="fill:#abcfe1; stroke:none;" d="M346.667 194.333C346.222 194.778 347.278 194.722 347.333 194.667C347.778 194.222 346.722 194.278 346.667 194.333z"/>
<path style="fill:#6eb1d3; stroke:none;" d="M348 194C349.248 194.685 349.548 194.749 351 195C349.752 194.315 349.452 194.251 348 194z"/>
<path style="fill:#96c5dd; stroke:none;" d="M322.667 195.333C322.222 195.778 323.278 195.722 323.333 195.667C323.778 195.222 322.722 195.278 322.667 195.333z"/>
<path style="fill:#6eb1d3; stroke:none;" d="M354.667 195.333C354.222 195.778 355.278 195.722 355.333 195.667C355.778 195.222 354.722 195.278 354.667 195.333z"/>
<path style="fill:#7cb8d6; stroke:none;" d="M317.667 196.333C317.222 196.778 318.278 196.722 318.333 196.667C318.778 196.222 317.722 196.278 317.667 196.333z"/>
<path style="fill:#83bbd8; stroke:none;" d="M359 196L360 197L359 196z"/>
<path style="fill:#7fb9d7; stroke:none;" d="M315 197L316 198L315 197z"/>
<path style="fill:#8bbfda; stroke:none;" d="M362 197L363 198L362 197z"/>
<path style="fill:#cce0e9; stroke:none;" d="M127 198L127 382C128.769 377.785 128 372.535 128 368L128 340L128 244L128 213C128 208.191 128.875 202.469 127 198z"/>
<path style="fill:#dbe7ed; stroke:none;" d="M128 198C133.462 200.292 141.113 199 147 199L188 199C182.538 196.708 174.887 198 169 198L128 198z"/>
<path style="fill:#53a3cd; stroke:none;" d="M188 198L188 382C189.875 377.531 189 371.809 189 367L189 336L189 240L189 212C189 207.464 189.769 202.215 188 198z"/>
<path style="fill:#b2d2e3; stroke:none;" d="M222 198L222 212C223.667 208.028 223.667 201.972 222 198z"/>
<path style="fill:#dbe7ed; stroke:none;" d="M223 198C228.463 200.292 236.113 199 242 199L283 199C277.538 196.708 269.887 198 264 198L223 198z"/>
<path style="fill:#5ba7ce; stroke:none;" d="M283 198L283 224C284.507 221.393 284.069 219.012 284.014 216C283.911 210.333 285.21 203.267 283 198z"/>
<path style="fill:#4fa2cc; stroke:none;" d="M312 198L313 199L312 198z"/>
<path style="fill:#b0d2e3; stroke:none;" d="M313 198L314 199L313 198z"/>
<path style="fill:#86bdd9; stroke:none;" d="M365 198L366 199L365 198z"/>
<path style="fill:#f1f2f2; stroke:none;" d="M128 199L128 382L188 382L188 199L128 199z"/>
<path style="fill:#80bad7; stroke:none;" d="M310 199L311 200L310 199z"/>
<path style="fill:#4b9fcb; stroke:none;" d="M368 199L369 200L368 199z"/>
<path style="fill:#9dc8de; stroke:none;" d="M308 200L309 201L308 200z"/>
<path style="fill:#60aad0; stroke:none;" d="M370 200L371 201L370 200z"/>
<path style="fill:#72b3d4; stroke:none;" d="M306 201L307 202L306 201z"/>
<path style="fill:#75b4d5; stroke:none;" d="M372 201L373 202L372 201z"/>
<path style="fill:#489eca; stroke:none;" d="M304 202L305 203L304 202z"/>
<path style="fill:#4ea1cc; stroke:none;" d="M374 202L375 203L374 202z"/>
<path style="fill:#abcfe1; stroke:none;" d="M303 203L304 204L303 203z"/>
<path style="fill:#b0d2e3; stroke:none;" d="M375 203L376 204L375 203z"/>
<path style="fill:#70b2d4; stroke:none;" d="M301 204L302 205L301 204z"/>
<path style="fill:#81bad7; stroke:none;" d="M377 204L378 205L377 204z"/>
<path style="fill:#a2cadf; stroke:none;" d="M300 205L301 206L300 205z"/>
<path style="fill:#5fa9cf; stroke:none;" d="M380 206L381 207L380 206z"/>
<path style="fill:#469dca; stroke:none;" d="M297 207L298 208L297 207z"/>
<path style="fill:#95c4dc; stroke:none;" d="M381 207L382 208L381 207z"/>
<path style="fill:#75b4d5; stroke:none;" d="M296 208L297 209L296 208z"/>
<path style="fill:#92c3dc; stroke:none;" d="M295 209L296 210L295 209z"/>
<path style="fill:#8ec1db; stroke:none;" d="M294 210L295 211L294 210z"/>
<path style="fill:#88bed9; stroke:none;" d="M293 211L294 212L293 211z"/>
<path style="fill:#449cc9; stroke:none;" d="M386 211L387 212L386 211z"/>
<path style="fill:#98c6dd; stroke:none;" d="M222 212L222 226C223.667 222.028 223.667 215.972 222 212z"/>
<path style="fill:#82bbd8; stroke:none;" d="M292 212L293 213L292 212z"/>
<path style="fill:#4b9fcb; stroke:none;" d="M387 212L388 213L387 212z"/>
<path style="fill:#7db8d7; stroke:none;" d="M291 213L292 214L291 213z"/>
<path style="fill:#52a3cc; stroke:none;" d="M388 213L389 214L388 213z"/>
<path style="fill:#67add1; stroke:none;" d="M290 214L291 215L290 214z"/>
<path style="fill:#409ac8; stroke:none;" d="M389 214L390 215L389 214z"/>
<path style="fill:#abcfe1; stroke:none;" d="M391 217L392 218L391 217z"/>
<path style="fill:#97c5dd; stroke:none;" d="M287 218L288 219L287 218z"/>
<path style="fill:#82bbd8; stroke:none;" d="M392 218L393 219L392 218z"/>
<path style="fill:#5faad0; stroke:none;" d="M286 219L287 220L286 219z"/>
<path style="fill:#51a2cc; stroke:none;" d="M393 219L394 220L393 219z"/>
<path style="fill:#9dc8de; stroke:none;" d="M394 221L395 222L394 221z"/>
<path style="fill:#489eca; stroke:none;" d="M395 222L396 223L395 222z"/>
<path style="fill:#8fc1db; stroke:none;" d="M396 224L397 225L396 224z"/>
<path style="fill:#7eb9d7; stroke:none;" d="M222 226L222 302C224.395 296.293 223 288.154 223 282L223 244C223 238.381 224.189 231.216 222 226z"/>
<path style="fill:#429bc9; stroke:none;" d="M399 229L400 230L399 229z"/>
<path style="fill:#469dca; stroke:none;" d="M400 231L401 232L400 231z"/>
<path style="fill:#86bdd9; stroke:none;" d="M401 234L402 235L401 234z"/>
<path style="fill:#51a2cc; stroke:none;" d="M402 236L403 237L402 236z"/>
<path style="fill:#afd1e2; stroke:none;" d="M402 237L403 238L402 237z"/>
<path style="fill:#79b6d6; stroke:none;" d="M403 239L404 240L403 239M310.667 242.333C310.222 242.778 311.278 242.722 311.333 242.667C311.778 242.222 310.722 242.278 310.667 242.333z"/>
<path style="fill:#50a2cc; stroke:none;" d="M312.667 242.333C312.222 242.778 313.278 242.722 313.333 242.667C313.778 242.222 312.722 242.278 312.667 242.333z"/>
<path style="fill:#208ac1; stroke:none;" d="M314 242C315.506 242.683 316.315 242.826 318 243C316.494 242.317 315.685 242.174 314 242z"/>
<path style="fill:#51a2cc; stroke:none;" d="M318.667 242.333C318.222 242.778 319.278 242.722 319.333 242.667C319.778 242.222 318.722 242.278 318.667 242.333z"/>
<path style="fill:#82bbd8; stroke:none;" d="M320.667 242.333C320.222 242.778 321.278 242.722 321.333 242.667C321.778 242.222 320.722 242.278 320.667 242.333z"/>
<path style="fill:#b4d3e3; stroke:none;" d="M322.667 242.333C322.222 242.778 323.278 242.722 323.333 242.667C323.778 242.222 322.722 242.278 322.667 242.333z"/>
<path style="fill:#5ba7ce; stroke:none;" d="M404 242L405 243L404 242z"/>
<path style="fill:#a8cee1; stroke:none;" d="M306 243L307 244L306 243z"/>
<path style="fill:#68aed2; stroke:none;" d="M307 243L308 244L307 243z"/>
<path style="fill:#84bcd8; stroke:none;" d="M326 243L327 244L326 243z"/>
<path style="fill:#9fc9df; stroke:none;" d="M404 243L405 244L404 243z"/>
<path style="fill:#63abd0; stroke:none;" d="M304 244L305 245L304 244z"/>
<path style="fill:#8dc0da; stroke:none;" d="M329 244L330 245L329 244z"/>
<path style="fill:#55a4cd; stroke:none;" d="M302 245L303 246L302 245z"/>
<path style="fill:#6eb1d3; stroke:none;" d="M331 245L332 246L331 245z"/>
<path style="fill:#50a2cc; stroke:none;" d="M300 246L301 247L300 246z"/>
<path style="fill:#77b5d5; stroke:none;" d="M405 246L406 247L405 246z"/>
<path style="fill:#a5cce0; stroke:none;" d="M298 247L299 248L298 247z"/>
<path style="fill:#76b5d5; stroke:none;" d="M334 247L335 248L334 247z"/>
<path style="fill:#5aa7ce; stroke:none;" d="M297 248L298 249L297 248z"/>
<path style="fill:#5ea9cf; stroke:none;" d="M406 249L406 252C406.696 250.446 406.696 250.554 406 249z"/>
<path style="fill:#409ac8; stroke:none;" d="M338 251L339 252L338 251z"/>
<path style="fill:#59a6ce; stroke:none;" d="M339 252L340 253L339 252z"/>
<path style="fill:#7db8d7; stroke:none;" d="M340 253L341 254L340 253z"/>
<path style="fill:#63abd0; stroke:none;" d="M290 255L291 256L290 255z"/>
<path style="fill:#5ea9cf; stroke:none;" d="M341 255L342 256L341 255z"/>
<path style="fill:#81bad7; stroke:none;" d="M407.333 255.667C407.278 255.722 407.222 256.778 407.667 256.333C407.722 256.278 407.778 255.222 407.333 255.667z"/>
<path style="fill:#9ec9de; stroke:none;" d="M289 256L290 257L289 256z"/>
<path style="fill:#4da1cb; stroke:none;" d="M342 257L343 258L342 257z"/>
<path style="fill:#bad7e5; stroke:none;" d="M407.333 257.667C407.278 257.722 407.222 258.778 407.667 258.333C407.722 258.278 407.778 257.222 407.333 257.667z"/>
<path style="fill:#66add1; stroke:none;" d="M288 258L289 259L288 258z"/>
<path style="fill:#92c2db; stroke:none;" d="M344 261L345 262L344 261z"/>
<path style="fill:#449cc9; stroke:none;" d="M286 262L287 263L286 262z"/>
<path style="fill:#479dca; stroke:none;" d="M408 262L408 265C408.696 263.446 408.696 263.554 408 262z"/>
<path style="fill:#a2cadf; stroke:none;" d="M345 264L346 265L345 264z"/>
<path style="fill:#56a5cd; stroke:none;" d="M345 265L346 266L345 265z"/>
<path style="fill:#abcfe1; stroke:none;" d="M408 265L408 271C408.951 268.715 408.951 267.285 408 265z"/>
<path style="fill:#67add1; stroke:none;" d="M284.333 267.667C284.278 267.722 284.222 268.778 284.667 268.333C284.722 268.278 284.778 267.222 284.333 267.667z"/>
<path style="fill:#7db8d7; stroke:none;" d="M346 268L346 271C346.696 269.446 346.696 269.554 346 268z"/>
<path style="fill:#aed1e2; stroke:none;" d="M283 271L283 274C283.696 272.446 283.696 272.554 283 271z"/>
<path style="fill:#89bed9; stroke:none;" d="M283 274L283 277C283.696 275.446 283.696 275.554 283 274z"/>
<path style="fill:#72b3d4; stroke:none;" d="M347 274L347 280C347.951 277.715 347.951 276.285 347 274z"/>
<path style="fill:#5ba7ce; stroke:none;" d="M283 277L283 382C285.802 375.322 284 365.216 284 358L284 304C284 295.993 286.105 284.4 283 277z"/>
<path style="fill:#ffffff; stroke:none;" d="M0 278L0 512L234 512C225.662 508.5 214.019 509.262 205 507.339C183.892 502.837 163.452 496.154 144 486.742C84.929 458.159 37.6191 405.548 15.0532 344C9.55934 329.016 6.00229 313.637 3 298C1.787 291.682 2.45566 283.85 0 278M511 278C510.987 298.138 505.335 319.01 499 338C476.495 405.462 424.592 461.187 360 490.306C335.036 501.56 305.646 510.982 278 511C284.194 513.599 293.314 512 300 512L347 512L512 512L512 347L512 300C512 293.314 513.599 284.194 511 278z"/>
<path style="fill:#3594c6; stroke:none;" d="M347 280L347 382C349.802 375.322 348 365.216 348 358L348 306C348 298.256 350.004 287.159 347 280z"/>
<path style="fill:#a4cce0; stroke:none;" d="M222 302L222 344C225.407 335.882 223 322.797 223 314C223 310.017 223.552 305.699 222 302z"/>
<path style="fill:#c1dae7; stroke:none;" d="M222 344L222 382C225.105 374.6 223 363.007 223 355C223 351.298 223.441 347.435 222 344z"/>
<path style="fill:#1e89c0; stroke:none;" d="M127 382C132.707 384.395 140.846 383 147 383L188 383C182.293 380.605 174.154 382 168 382L127 382M222 382C227.707 384.395 235.846 383 242 383L283 383C277.293 380.605 269.154 382 263 382L222 382M348 382C353.707 384.395 361.846 383 368 383L409 383C403.293 380.605 395.154 382 389 382L348 382z"/>
</svg>
